<svg viewBox="0 0 1440 642" fill="none" xmlns="http://www.w3.org/2000/svg">
  <g clip-path="url(#clip0_2344_6816)">
    <path d="M0 203.4c4.5-.8 8.9-1 13.3-.4 4.5-3.4 9.4-5.1 14.4-5 5 .1 9.9 2.1 14.3 5.7a52 52 0 0 1 14 27.1c4.9 3.7 9.1 9.3 12.3 16.2 1.3 2.6 3.1 11.8 4.7 13.3 2.3 2.1 9.7 0 12.4 0a90 90 0 0 1 24.6 4.8 71.3 71.3 0 0 1 31.7 24.7c9.3 12 16.7 27.4 21.6 44.9l1.7 1.4c8.5-1.8 17.2-.4 25.4 4 12.5 7 18.9 27.2 26.5 34.8 11.7 11.9 22.6 15 30.5 36.8a130.2 130.2 0 0 1 4.4 65.7c-.1 4.7-1.3 9.2-3.4 12.5-2.1 3.3-4.9 5.1-7.8 5.2a2893 2893 0 0 1-230.3 5.5c-6.2-.4-12.3-1.9-18.3-4.3V205c2.7-.8 5.4-1.3 8-1.6Z" fill="#314E3B"/>
    <path d="M345.2 514a11.1 11.1 0 0 1-1-12.6c3.2-5.3 7-10.3 11.2-14.9 2.4-3 3.6-6.8 3.2-10.6 0-9-2.8-36.3 9.6-38.2 5.7-.8 12.4 3.1 18 4a162 162 0 0 0 23.6 2c12.2 0 24.3-2.9 35.1-8.5a95 95 0 0 1 32.7-11.4 59 59 0 0 1 27.5 4.3 66.8 66.8 0 0 0 26.3 4.7c7.3-.3 14.2-4 21-6.4 5-2 10.4-3.1 15.8-3.3 20.7-.2 39.3 10.8 59.6 14.6 11.4 1.7 23 .8 34-2.6a61.5 61.5 0 0 0 15-5.8c12.9-7.2 26-15.3 41.6-13.8 15.5 1.5 28.8 3.3 43.8-4 8.4-3.9 15.2-7.6 24.8-7.5 13.7 0 23 7.2 34.8 13 10.6 4.5 21.8 7.4 33.3 8.5a35 35 0 0 1 22.5 10.9c5.6 5.4 10 11.7 13.3 18.8 3.3 7 3.6 13.6 9.3 20a55.1 55.1 0 0 0 34.3 19.3c6.4.7 12.8.4 19.2 1.3 16.5 2 34.2 6.8 48 16.3 5.5 4 10 8.6 15.7 11.8 5.7 3.2 12.7 6.9 19 10 11.9 5.7 23.7 5.4 36.5 5.4 6.6 0 13-.6 19.7-.8 8.5-.2 16.7-.6 25.3 0 23 1.5 43.5 8.8 65 16.8 13.3 5.5 27.2 9.1 41.4 10.8 10.7-1.3 21.2-3.7 31.5-7a32 32 0 0 1 5-1.9h.3a41 41 0 0 1 9.7-1.6c1.4 0 2.7 0 4 .4a62 62 0 0 1 37.2 11.4c7 4.7 13 10.8 17.6 17.9a10 10 0 0 1 3 4.2c16.2 24.4 12.8 55.1-5.5 78.1-21.6 27.2-57.8 36-90.2 42.6-89.8 18-181.8 21.7-273 17.5-92.1-4.3-183.6-16.4-274.8-29.3-90.4-12.8-183-22-272.6-40-34.5-6.8-69.3-22.5-81.7-58-10.2-29.8-2.9-59.3 10.4-86.4Z" fill="#FFE5BC"/>
    <path d="M854.8 508.5c2.3-4.7 5.6-9.2 8.4-13.7 1.4-2.3 2.9-4.6 4.5-6.8.9-1 2-3 3.3-3.5 2.6-1 4.3 3.4 5 5.2l1.5 3.5c.4 1.2 1.3 5.4 3 4.6 1-.5 1.7-1.2 2.5-2l2.7-2.2c1.5-1.6 3.3-3 5.2-4 2.3-.8 4.2 1.1 5.5 2.6 2 2.6 3.3 5.6 4 8.7.3.9 1.4 4 .7 4.6-.8.7-1.7-.2-2.2-.7-1.7-1.9-2.8-4.4-4.3-6.5a4.4 4.4 0 0 0-3-2.2c-2-.3-3.1 1.7-4.2 3l-5.2 6c-.6.7-1.3 1.7-2.3 1.7-3.5 0-5-7-5.8-9.4a7.9 7.9 0 0 0-1.7-3.2c-1.8-1.3-3.3 1.5-4.3 2.6-3.3 3.6-6 7.6-9.2 11-.4.5-4.3 5.4-5.2 4.3-1-1 .9-3.2 1-3.6ZM630.3 481.2c2.4-4.7 5.7-9.2 8.5-13.7 1.4-2.3 2.9-4.6 4.5-6.8.9-1 2-3 3.3-3.6 2.6-1 4.3 3.5 5 5.3l1.4 3.5c.5 1.2 1.4 5.4 3.1 4.6.9-.6 1.7-1.2 2.4-2l2.8-2.2c1.5-1.6 3.3-3 5.2-4 2.3-.8 4.2 1.1 5.5 2.6 2 2.6 3.3 5.6 4 8.7.3.9 1.4 4 .7 4.6-.8.7-1.8-.2-2.2-.7-1.7-2-2.8-4.4-4.4-6.5a4.4 4.4 0 0 0-2.9-2.2c-2-.3-3.1 1.7-4.2 3l-5.2 6c-.6.7-1.3 1.7-2.3 1.7-3.5 0-5-7-5.8-9.4a7.9 7.9 0 0 0-1.7-3.2c-1.8-1.3-3.3 1.5-4.4 2.6-3.2 3.5-5.9 7.6-9.2 11-.4.4-4.2 5.4-5.2 4.3-.9-1 1-3.2 1.1-3.6Z" fill="#5AAD6A"/>
    <path d="M1012.6 350.3c.4-.3.9-.6 1.3-.7a6.3 6.3 0 0 1 7.7 1.7c1.5 2 3 4 4.3 6.1a58 58 0 0 1 10.5 48.5c-.6 4.3-1.5 8.5-2.8 12.6a6 6 0 0 1-3.3 3.2 6 6 0 0 1-6.2-1.2 6.3 6.3 0 0 1-5.6-3.6 109.7 109.7 0 0 1-13-33.4c-1.8-10.1-.1-20.5 4.8-29.5a5.4 5.4 0 0 1 2.3-3.7Z" fill="#314E3B"/>
    <path d="M1046.7 361c2.2-3.3 4.7-6.4 7.5-9.3 3.5-3.6 7.6-6.4 11.1-9.7a28 28 0 0 1 8.7-6.4 98 98 0 0 1 9.4-4.6c6.2-2.6 13-5.1 17.7 1.2 3.1 5.4 5 11.4 5.5 17.5a97 97 0 0 1 0 32.7 79.4 79.4 0 0 1-19.7 41.8c0 .8-.5 1.5-1.1 2.1-7.9 7.2-17.1 15-28.4 12.7-2.7-.6-7.3-1.9-8.7-4.5-.5-1-.2-2.2-1.1-3.3-1-.8-2.2-1.6-3.4-2.1l-2.1-2.4c-11.4-10.7-11.2-25.8-7.7-40.2a95 95 0 0 1 9.2-20.3l3-5.1Z" fill="#5AAD6A"/>
    <path d="M1048.4 378.5a59.7 59.7 0 0 1 8.8 28.4l6.3-13.6c1.6-11-.3-22.1-5.6-31.9-1.2-2.2 2.2-4.2 3.4-2a55 55 0 0 1 6.5 24.6l6.4-13.7 1.2-2.6c.7-6.7-.5-13.5-3.5-19.6-1.1-2.3 2.3-4.3 3.4-2 2.1 4.2 3.5 8.7 4 13.4l4.8-10.3 2.5-5.3c.4-1.4 1-2.7 2-4a3 3 0 0 1 1.8-1c1.2-2 4.3 0 3.3 2.2l-.1 1c-.2.4-.5.7-.8.8l-.3.8c-2.6 6.3-5.1 12.6-8 18.8a81 81 0 0 1 12.6-7.5 2 2 0 0 1 2.7.7 2 2 0 0 1-.7 2.7c-6.5 3-12.5 7-18 11.8a664 664 0 0 1-8.7 18.7 149 149 0 0 1 26.5-14 2 2 0 0 1 1.3.7 2 2 0 0 1 .2 2.2 2 2 0 0 1-1.2 1 144.3 144.3 0 0 0-30.3 17.3c-2.4 4.8-4.8 9.5-7.4 14.2a104 104 0 0 1 31.2-11.5c2.5-.4 3.6 3.3 1 4a101.3 101.3 0 0 0-35.6 14.3l-.5 1c-.3.5-.6.8-1 1a2 2 0 0 1-2.7 0 2 2 0 0 1-.5-1c-.2-.1-.3-.3-.3-.5v-.6a56.5 56.5 0 0 0-8-36.5c-1.5-2.1 2-4.1 3.3-2Z" fill="#314E3B"/>
    <path d="M889 515.1a73.7 73.7 0 0 1 8-35.4c5-19.1 16.6-35.9 32.6-47.5a118 118 0 0 1 17.5-17.4c17-13.6 37.7-15.7 58.8-16.1a69.6 69.6 0 0 1 40.7 4c3.2 1.5 6.2 3.4 9.2 5.4 20.4 9.1 37.4 24.4 48.5 43.8a133.8 133.8 0 0 1 17.3 61.4c.3 8.4 1.3 20.7-1.5 30.4.3 1.8.2 3.6-.3 5.4-2 7-5 13.9-8.7 20.2-16.1 35.2-58 61-95.2 65.5-49.2 6-119-24-125-78.3-5.2-12-4.8-26.7-1.9-41.4Z" fill="#F8983E"/>
    <path d="M961 510.4a66.8 66.8 0 0 1 53.3-44.9 55 55 0 0 1 42.6 7.9 76.6 76.6 0 0 1 19.7 17.8c.9.5 1.5 1.3 1.9 2.2.3.3.5.6.6 1v1l-.3.7a6 6 0 0 1-1.6 3.3c0 .3-.3.6-.4 1l-.6.9a69.2 69.2 0 0 1-8.5 12.5 89 89 0 0 1-6.4 8 52.4 52.4 0 0 1-23.2 16.3 94 94 0 0 1-50.3 4.8c-7-1.5-18.3-2.1-24.2-7.4-1.9-.7-3.5-1.9-4.7-3.5-5-6.6.4-14.6 2-21.6Z" fill="#fff"/>
    <path d="M996.9 498.7c6.5-13.8 19.2-22.7 32.2-21.4a28 28 0 0 1 20 10.7c.7 1.2 1.5 2.3 2.1 3.5 2.7 3.4 4.4 7.5 5 11.8 2.2 7.3-1.9 16.8-6.1 21.7-4.7 5.3-11 9-17.9 10.2-7 1.8-14.4 2.2-21.6 1.2a20.8 20.8 0 0 1-16.1-12.1c-3.6-8.1-1.2-18 2.4-25.6Z" fill="#314E3B"/>
    <path d="M-22 446.6s99.5 17 190.7 0c91.2-17 205.2-102.5 401.1 47.6 196 150.2 355.4 149.2 385.4 133 30-16.1 123-48.4 207.6 37.1s122.6 75.7 122.6 75.7v12.7H-22v-306Z" fill="#5AAD6A"/>
    <path d="M-3.4 420.6c3.7 3 7.1 6.5 10.6 9.8l5.4 4.9c1.5 1.6 3.2 3 5.1 4.3a9.5 9.5 0 0 0 7.6-.3l6.6-1.8a133.3 133.3 0 0 1 56.6-1.7 28 28 0 0 1 16 8.8c2.3 1.6 4.3 3.5 6 5.6a48.4 48.4 0 0 1 15 23.9c2 6.8-4.9 14.6-12 12-3-1-6-2.2-8.8-3.6-.8 1-1.8 1.7-2.9 2.3 1 5.6.3 11.3-5.6 14.7a10.6 10.6 0 0 1-9.3 1.2 12.5 12.5 0 0 1-11.8 8.5c-1.3 0-2.6 0-4-.5a13.3 13.3 0 0 1-16.3 12.1c-2-.4-4-1.3-5.6-2.6-1.6 3.4-4 6.3-7 8.5a7.9 7.9 0 0 1-6 1.3 11.8 11.8 0 0 1-8.2 10.4 11.8 11.8 0 0 1-10.8-2.5 10.2 10.2 0 0 1-11.1-7c0-.7-.4-1.3-.5-2-2-.5-3.9-1.7-5.2-3.3a9 9 0 0 1-6.3-9v-12.2H-6c-.7.5-1.4 1-2.2 1.3v-83.9a4.6 4.6 0 0 1 5 .8Z" fill="#314E3B"/>
    <path d="M38.1 1059.7s-33.9 42.2 0 79.3c0 0-41.9 17.8-43.5 75.1a52 52 0 0 1-.7 7l-3.1 18.6v125.2H622v-30.4c4-4 7-8.8 8.8-14 5.6-16.6 4-35.5-1.4-52.6a69.7 69.7 0 0 0 49.4-37.3 64.3 64.3 0 0 0-.8-59 85.8 85.8 0 0 0 25.4-67.4c-2.4-41.9-24.2-90.4-60.1-115.5a78.7 78.7 0 0 0 16.3-46.9 65.5 65.5 0 0 0-35-58.4 144.3 144.3 0 0 0-30.3-81 148.4 148.4 0 0 0-42.5-37.3 127.3 127.3 0 0 0-89.7-135c-10.8-32.7-30-62.4-60.6-80.2a100 100 0 0 0-95.6-4 86.5 86.5 0 0 0-44.3-42.8c-30.2-13.4-63.8-9.4-94.4 1a128.6 128.6 0 0 0-56.2-52.6l1.1 1.9a2 2 0 0 1-.7 2.7 2 2 0 0 1-1 .2 60.2 60.2 0 0 0-39.4 15.1c-1 .2-2 .3-3 .2-1.2 0-2.4.3-3.6.6A44.8 44.8 0 0 0 42 484a23 23 0 0 1-9.5 5.8c-4 1-8.3.6-12.5 1.3a55.7 55.7 0 0 0-26.4 11.8c-.7.5-1.4 1-2.2 1.3v-82.6l-.7-.5v596.3c2.3 2.4 4.3 5 5.8 7.9 5 9.6 19 32 41.6 34.4Z" fill="#FFE5BC"/>
    <path d="M733.5 607.5a31.1 31.1 0 0 1 11.2-13.8c6.6-3.7 14.3-2 21 .6 3.2 1.3 6.4 2.8 9.5 4.5 3.2 1.4 6 3.5 8 6.3 4 6.8-3.9 13.2-8.5 17a50.5 50.5 0 0 1-19.7 9 4 4 0 0 1-4.8-4.6l-.4-.3L736 615a3 3 0 0 1-1-2 4.3 4.3 0 0 1-1.5-5.4ZM630.7 552a4 4 0 0 1 4.3-4.6 103 103 0 0 1 34 7.2 3.6 3.6 0 0 1 1 4v.3a4 4 0 0 1-4.2 3.6c-2.6-.4-5.3-.6-8-.7l.3.3c1.8 1.2 3 3 3.6 5.1a9.8 9.8 0 0 1 4.6 7c2.6 3.3 4.3 7.3 1.5 10.8-.5.8-1.3 1.4-2.2 1.7l-.8 1.3a6 6 0 0 1-3 1.6 4 4 0 0 1-4.5 4.2 4 4 0 0 1-2.4-1.4 3.6 3.6 0 0 1-5.3.9l-1.3-1a4 4 0 0 1-1.2-1.7 64.6 64.6 0 0 1-16.4-38.6Z" fill="#314E3B"/>
    <path d="M598 607.7c.5-5.2 6-8.1 9.8-10.9a162.2 162.2 0 0 1 54.6-24.7 109.1 109.1 0 0 1-13.7-56.2c.2-6.8 0-27 11.2-24.7 5.2 1 10.1 6.8 13.8 10.2 2.4 2.2 4.7 4.5 7 6.9 12.1 12 22.2 26 29.7 41.5 4.7 1.4 9.1 3.5 13.2 6.1a143 143 0 0 1 30-9.7l2.5-.4a141 141 0 0 1 22.5-2.2h1c.7 0 1.4.2 2 .5 1 .3 2.1.9 3 1.6a4 4 0 0 1 1.8 2.4 7.9 7.9 0 0 1 0 6.4c-4.9 10.4-11.3 20.1-19.1 28.7a129.3 129.3 0 0 1-24.7 22.8c-1 .5-2.1 1-3.2 1.3a108 108 0 0 1 36.4 33.1c5 6.1 8.6 13.2 10.7 20.8v.2a4.8 4.8 0 0 1-2.4 5.7 14 14 0 0 1-5.4 2c-2.4.2-4.8.8-7.2 1a100.4 100.4 0 0 1-64-14.7 141 141 0 0 1-38.8 50.4c-3.9 3.3-9.4 8.8-15.2 7.3-5.8-1.6-8.2-8.5-9.2-13.5-2.5-12.8 1.1-27.4 4.3-39.7 2.4-10 6-19.5 10.7-28.6-8.1.5-16.3.1-24.4-1.2a70.3 70.3 0 0 1-30.9-11.2 13.6 13.6 0 0 1-6-11.2Z" fill="#fff"/>
    <path d="M624.7 603.9c10.9-4 22.3-6.2 33.9-6.4l.2-2.1c.3-4.5 1.1-9 2.3-13.3 0-.5.3-.9.4-1.3 1.4-3.8 3.3-7.4 5.8-10.6 1.4-2 2.4-4 3.9-6s3.2-3 4.7-4.6l1.7-1.6a102 102 0 0 0-12.3-33.3 4 4 0 0 1 6.8-4c5.7 9.8 9.9 20.4 12.3 31.5 1.7-1.5 3.8-2.6 6.1-3 1.3-.1 2.6 0 4 .4h1a10.6 10.6 0 0 1 1.2 9.9c1 1 1.8 2.4 2 4a60.6 60.6 0 0 0 21.1 38.2 10.9 10.9 0 0 1 11.4 3.4c1.3.3 2.5.8 3.7 1.6.7.4-1.8 7-2 7.8-1 2.6-2 5-3.5 7.2l-2.5 2.9a190.3 190.3 0 0 1 29.6 18.4 4 4 0 0 1-2.5 7.2 4 4 0 0 1-1.4-.5 194 194 0 0 0-31.9-19.6 45 45 0 0 1-25.8 11.1h-.7c-2.5.2-5 0-7.5-.7a974.4 974.4 0 0 0-14 34 4 4 0 0 1-5.5.7 4 4 0 0 1-1.4-4.1 1014 1014 0 0 1 13.6-33.3l-5-2.7a37 37 0 0 1-8.4-6.5 40 40 0 0 1-6.8-11 34.2 34.2 0 0 1-1.5-12.5c-10.5.3-21 2.4-30.8 6a4 4 0 0 1-4.8-2.7 4 4 0 0 1 2.6-4.5ZM734.9 572.9a137.7 137.7 0 0 1 30.9-18.2 4 4 0 0 1 2.5 7.3c-10 4.3-19.3 9.9-27.9 16.4a4 4 0 0 1-6.7-2.7c0-1 .4-2 1.2-2.8Z" fill="#F8983E"/>
    <path d="M665.4 620.5a27.3 27.3 0 0 0 25.8 15.7c9-.5 17.7-4 24.6-9.8a49.4 49.4 0 0 0 22.6-27.6c2.3-4.5 3.3-9.5 3-14.6.6-1.2 1-2.6 1.2-4a24.5 24.5 0 0 0-10-22.6c-2.8-2.3-6-4.2-9.3-5.7l-2.2-1h-.3a67.5 67.5 0 0 0-13.3-3.9c-4.3-1-8.8-1-13 0-2 .2-3.8 1-5.2 2.3a25.6 25.6 0 0 0-7 7c-1.4 2-2.7 4.2-4 6.4a79.8 79.8 0 0 0-7.8 16.5 69.4 69.4 0 0 0-4 9.8c-3.5 9.9-5.3 21.7-1.1 31.5Z" fill="#fff"/>
    <path d="M689.4 570.7a50.8 50.8 0 0 0 23.2 24.2 26 26 0 0 0 12.5 3.5c1.4-.2 2.8-.7 4-1.5 2.3-1.4 4.2-3.5 5.4-5.9a25 25 0 0 0 2.9-16.3 22.5 22.5 0 0 0-8.8-13.6 34.2 34.2 0 0 0-7.6-4.6c-.6-.3-1.2-1-1.8-1.2h-.2c-2.3-1-4.6-1.7-7-2.2-1.1-.5-2.7-.2-4-.6a23 23 0 0 0-10.6 0c-1.6.2-3 .8-4.2 1.8a21.1 21.1 0 0 0-5.7 5.7c-.5 3.7.2 7.4 2 10.7Z" fill="#5AAD6A"/>
    <path d="M697.5 537c0-1 .3-2 .8-3a6 6 0 0 1 8.1-2.1 7 7 0 0 1 2.7 3.6 41.3 41.3 0 0 1 2.5 21.5 6.8 6.8 0 0 1-4.4 4.6 6.6 6.6 0 0 1-8.2-4.9l-1-4.6-1-4.2c-.4-2-.5-4-.5-6 .1-1.7.4-3.4 1-5ZM717.8 555.6l.9-1.5a38 38 0 0 1 12.7-12.5c1.3-.7 2.8-1 4.3-.8 1.5.2 2.9.8 4 1.9.7.8 1.3 1.9 1.7 3 .3 1.1.3 2.4 0 3.5 0 1.3-.3 2.5-1 3.6-2.9 5-6.9 9.3-11.7 12.6a7.4 7.4 0 0 1-11.9-6c0-1.3.4-2.6 1-3.8ZM708.2 567.8a6.8 6.8 0 0 1 7.3-.5l.8.6.8.4c2.4 1.8 4.6 3.8 6.7 6l3.2 4c1.1 1.3 2 3 2.5 4.6a7.4 7.4 0 0 1-1.3 6.7 7.6 7.6 0 0 1-6 3c-2.1-.2-4.2-1-5.8-2.4-1.4-1-2.7-2-4-3.3a35.5 35.5 0 0 1-3-3.9c-1.7-2.6-3-5.4-3.7-8.5a6.6 6.6 0 0 1 2.5-6.7Z" fill="#F8983E"/>
    <path d="M939.2 653.1c-.1-4.6.5-9.2 2-13.6a4.4 4.4 0 0 1 7.2-1.7l.4.4h1.3c1.8-.2 3.6 0 5.3.2a11.8 11.8 0 0 1 7.9 6c1 2 1.3 4.4 1 6.7l.7-.8.5-.6.2-.2a4.3 4.3 0 0 1 7.4 4.5 40 40 0 0 1-24.6 15 6.4 6.4 0 0 1-7-3.7c-1.5-3.9-2.3-8-2.3-12.2ZM917.3 606.2a9 9 0 0 1 4-4.7 30.9 30.9 0 0 1 9.9-4c2.1-.6 4.4-.3 6.4.9a15 15 0 0 1 4.2 4.8c1.3 1.5 2.3 3.3 3 5.2a6.4 6.4 0 0 1-2.8 7c-.9.6-1.9 1-3 1.1a4.2 4.2 0 0 1-.1 7.5c-1 .5-2.2.6-3.3.3a38.7 38.7 0 0 1-16.3-11 7.9 7.9 0 0 1-2-7ZM985.2 648a4.6 4.6 0 0 1 2.3-3.7c2.1-1.4 4.6-2.2 7.2-2.3a9.5 9.5 0 0 1-.3-7.7c.3-1 1-2 2-2.5s2.3-.7 3.4-.3c1.2.5 2.2 1.4 2.8 2.5a4 4 0 0 1 1.8-2 4.4 4.4 0 0 1 5.9 1.7c3.5 6.3 5 13.6 3.9 20.8a4.5 4.5 0 0 1-4.5 4.2c-8-.1-15.7-2.4-22.4-6.7a4.3 4.3 0 0 1-2-4Z" fill="#314E3B"/>
    <path d="M914.1 646.5c3.8 1.7 7.9 2.5 12 2.3 11.3.5 22.4-2 32.2-7.5 1.4 18 9.5 34.8 22.6 47.2a4.4 4.4 0 0 0 6.8-.8c7.5-15.7 12.3-33.8 8.8-50.6a64.7 64.7 0 0 0 39.3 11.8 4.5 4.5 0 0 0 3.8-2.1 4.5 4.5 0 0 0 .2-4.4 99.3 99.3 0 0 0-34.6-40 119.2 119.2 0 0 0-35.9-21.5l-1-.4c-15.8-5.8-35-9.8-51.2-3.7a4.4 4.4 0 0 0-2.8 6.4 63 63 0 0 0 26.2 25.3 60 60 0 0 0-26.6 26.4c-1.7 3.6-4.2 8.6.2 11.6Z" fill="#fff"/>
    <path d="M938.5 628.5a4.5 4.5 0 0 0 6.1 0c9-6.6 19-11.7 29.5-15.2h.3a101 101 0 0 0 0 38.5c1 5.4 9.5 3.4 8.4-2a89.4 89.4 0 0 1-.5-31.2c2.9.1 5.7-.1 8.5-.7 6 4.6 12.3 8.5 19 11.8a4.5 4.5 0 0 0 6-1.5 4.3 4.3 0 0 0-1.4-5.9c-4.5-2.1-8.9-4.6-13-7.3-.3 0-.6-.4-.9-.6a34.3 34.3 0 0 0 9.8-8.6 112 112 0 0 0-5-3.6 119.2 119.2 0 0 0-35.9-21.5l-1-.4c-1.8 3.5-3 7.2-3.7 11a43.3 43.3 0 0 0-18.4-6.2 4.4 4.4 0 0 0-.4 8.7l2.1.3h.8a49.5 49.5 0 0 1 7 2.2h.5l.6.2 1.5.8 3.2 2 1.5 1.1c.5.4.2 0 .3.3l.5.3c.2 0 .3.4.5.5.4 1.7 1 3.3 1.9 4.8-10 4-19.4 9.1-28 15.5a4.3 4.3 0 0 0 .2 6.7Z" fill="#F8983E"/>
    <path d="M969.9 583.4c2.7-9.5 8-21.3 18.9-23.2 9.6-1.6 17.5 3.2 24 9.4 2.4 1.8 4.5 3.8 6.4 6.1.7.5 1.3 1.2 1.5 2 .4.9.4 1.8.1 2.6a46.5 46.5 0 0 1-15.1 24c-7.6 6.2-18.9 12-28.8 7.6-11.4-5-10-18.5-7-28.5Z" fill="#fff"/>
    <path d="M995 562.1c1.5.1 3 .6 4.4 1.3l4.5 2.2a26 26 0 0 1 11.5 11l.2.3v.4c.5 1 .8 2.2 1 3.4a4.4 4.4 0 0 1-3.2 5.2 4.6 4.6 0 0 1-4.2-1.4l-1.8-.6a126 126 0 0 1-12.4-6.1c-2.9-1.5-5-4-6.2-7a6.4 6.4 0 0 1 6.1-8.7Z" fill="#5AAD6A"/>
    <path d="M990 556.5c0-.5.2-1.1.4-1.7a3.5 3.5 0 0 1 4.7-1.8c.8.5 1.4 1.2 1.8 2a24.9 24.9 0 0 1 2.9 12.7 4 4 0 0 1-2.4 3 4 4 0 0 1-5.2-2.4l-.9-2.7a43 43 0 0 1-1.5-6c0-1 0-2 .3-3ZM1002.7 569.7v-1c0-3.7 1-7.2 2.7-10.3a4 4 0 0 1 4.6-2 4 4 0 0 1 3 2.8c.3.7.5 1.4.5 2.1 0 3.5-.7 7-2.3 10.1-.4.9-1 1.7-1.8 2.2a4.4 4.4 0 0 1-6.1-1.7c-.4-.7-.6-1.4-.6-2.2ZM1009 579a4.2 4.2 0 0 1 2.7-3.4h1.1a27.2 27.2 0 0 1 8.5-.3c1 .1 2 .4 3 .8a4.7 4.7 0 0 1 2.5 3.3 4.5 4.5 0 0 1-1.2 4c-.9.8-2.1 1.4-3.4 1.6a18.9 18.9 0 0 1-5.9.1c-1.8-.2-3.6-.8-5.2-1.7a4 4 0 0 1-2.1-4.3Z" fill="#F8983E"/>
    <path d="M25.7 590.5a13 13 0 0 1 8.2 2.3 68 68 0 0 1 38.7 55.6c0 1.4-1.3 1.8-2.3 1.4l-1 1.3c-4 4.4-10.7 3.4-15.4.8a60.4 60.4 0 0 1-24.2-28.4c-2.8-6.3-5-13-6.5-19.7-.8-4-3-11.9 2.5-13.3Z" fill="#314E3B"/>
    <path d="M75.8 576c2.4 1.5 3.3 5 4.2 7.4a66 66 0 0 1 3.8 27.2A69.1 69.1 0 0 1 68.1 650c-.9 1-2.2.3-2.5-.7l-1.7.3c-6 .2-9.9-5.2-11.4-10.3-3-12.5-2-25.5 3-37.3a96.7 96.7 0 0 1 9.4-18.5c2-3.1 6.1-10.4 11-7.4Z" fill="#5AAD6A"/>
    <path d="M21.8 650.7c3.9-3.4 8.6-5.8 13.6-7 5.4-1 11-1 16.3.3h.3a8.6 8.6 0 0 1 10.3-1c1.4 1 2.7 2.1 4 3.3 10.3 2.8 19.3 9 25.4 17.7a43.1 43.1 0 0 1-9.7 59.3 29.3 29.3 0 0 1-28.2 10.4 47.8 47.8 0 0 1-14.7-2A48.3 48.3 0 0 1 2 679.4a37.6 37.6 0 0 1 19.8-28.7Z" fill="#F8983E"/>
    <path d="M69.6 641.3a4 4 0 1 1 7.6 2 27.5 27.5 0 0 0 20 37.5c5 1 2.9 8.7-2 7.6a36.3 36.3 0 0 1-23-16.6 35.9 35.9 0 0 1-2.6-30.5Z" fill="#314E3B"/>
    <path d="M146.5 607.7a30.2 30.2 0 0 0-13.6-7 36 36 0 0 0-16.2.3h-.3a8.6 8.6 0 0 0-10.4-1 47 47 0 0 0-3.9 3.3A45.3 45.3 0 0 0 76.7 621a43.1 43.1 0 0 0 9.7 59.3 29.5 29.5 0 0 0 28.2 10.4 49.3 49.3 0 0 0 14.6-2 48.2 48.2 0 0 0 37.2-52.3 37.5 37.5 0 0 0-19.9-28.7Z" fill="#F8983E"/>
    <path d="M151 629.5c-.1-.4-.4-.7-.7-1l-.8-.8c-.5-.5-1-.8-1.5-1.1l-.4-.3c-.4-.4-1-.6-1.5-.7a4.2 4.2 0 0 0-3.2.5l-.8.7c-.5.5-.9 1.2-1 2a9.5 9.5 0 0 0 .7 7l1 1.1.5.4.6.4 1 .4h1.5l1-.2c.5 0 1-.2 1.3-.4.4-.1.7-.3 1-.6.2-.2.5-.4.7-.8v-.2l.4-.7.4-.9.3-.7v-2.8a6 6 0 0 0-.4-1.3ZM136.7 636.1l-.7-.8-1.1-.8-1-.4h-3.4l-1 .5h-.3l-1 .8-.3.5-.4.5s0 .2 0 0l-.4 1.2v1.5c0 .5 0 1 .2 1.4v.2l.5 1.2v.2l.8 1 1 .6 1 .4h1.3l1.3-.2h.4l1.1-.5 1-.8v-.3l.7-1 .5-1.1v-.8a5.4 5.4 0 0 0-.3-2.1l.1-1.2ZM138.6 617a8.7 8.7 0 0 0-2.8-3.8 11 11 0 0 0-1.8-1.2l-.5-.3h-.4a5.6 5.6 0 0 0-4-.5 5.2 5.2 0 0 0-3.2 2.6 5.6 5.6 0 0 0-.6 3.7 9 9 0 0 0 1.9 4.8l1.5 1.8c.8.8 1.8 1.4 3 1.7a5.8 5.8 0 0 0 7.3-4 6 6 0 0 0 0-1.7v-.6c0-.8 0-1.7-.4-2.5Z" fill="#fff"/>
    <path d="M46.4 289.6a23 23 0 0 1 10.5-5.3c4-1 8.3-1 12.4 0a6.6 6.6 0 0 1 7.9-.8l3 2.6c8 2 15 6.9 19.7 13.6a33.1 33.1 0 0 1-7.5 45.5 22.6 22.6 0 0 1-21.6 7.8 38.2 38.2 0 0 1-11.3-1.5A37 37 0 0 1 31 311.3a28.9 28.9 0 0 1 15.4-21.7Z" fill="#F8983E"/>
    <path d="M43 306.2c0-.2.3-.5.5-.7l.6-.7 1.2-.8.3-.2c.3-.3.7-.5 1-.6a3.3 3.3 0 0 1 2.6.4l.6.6c.4.4.7.9.8 1.4a7.4 7.4 0 0 1-.6 5.4l-.8 1-.4.2-.4.4-.8.3h-2l-1-.3c-.2 0-.4-.2-.6-.4-.3-.2-.5-.4-.6-.7l-.3-.5-.3-.6v-1.2c-.2-.5-.2-1 0-1.6l.1-1.4ZM54 311.5c0-.2.3-.5.5-.7l.8-.5.9-.3h3l.9.3.7.6.3.4.3.4.3.9V315c0 .3-.2.6-.4 1l-.5.6-.7.6-.9.3h-2l-.8-.4-.8-.7-.6-.7-.3-1v-1.2c0-.7.3-1.4.6-2h-1.4ZM52.5 296.8c.3-.8.8-1.6 1.4-2.2l.7-.8 1.4-.9h.7c1-.5 2-.7 3-.4a4 4 0 0 1 2.6 2c.5.8.6 1.9.5 2.8a7.2 7.2 0 0 1-1.4 3.7l-1.2 1.4c-.7.6-1.4 1-2.3 1.3a4.6 4.6 0 0 1-4.7-1.4c-.5-.5-.8-1.1-1-1.8V298.8c0-.6 0-1.3.3-2Z" fill="#fff"/>
    <path d="M33.5 250.1a12.2 12.2 0 0 0-5.4-2.7c-2-.5-4.3-.5-6.4 0a3.4 3.4 0 0 0-4-.5l-1.5 1.4a18 18 0 0 0-10 7 17 17 0 0 0 4 23.2 11.8 11.8 0 0 0 11 4 20 20 0 0 0 5.8-.8A19 19 0 0 0 41.7 261a14.8 14.8 0 0 0-8.2-11Z" fill="#F8983E"/>
    <path d="m35.2 258.6-.2-.3-.3-.4-.6-.4a1.6 1.6 0 0 0-1.3-.3l-.6.2-.3.3-.4.7v2l.3.8.4.5h2.3l.3-.3v-2c.2-.2.4-.5.4-.8ZM29.6 261.3l-.3-.3-.4-.3-.4-.2h-1l-.4.2-.4.4v.2l-.2 1v.9l.3.4.4.3h1.6l.3-.3.3-.4v-1.6l.2-.3ZM34.5 268.2a2 2 0 0 0-.2-.5l-.3-.3-.4-.3-.7-.2h-.8l-.5.2-.4.3-.2.5v.9a2 2 0 0 0 .5 1.4l.5.3.5.2h1l.5-.2.3-.3.3-.3v-1.7ZM30.3 253.8a3.8 3.8 0 0 0-1-1.5 4 4 0 0 0-.7-.5h-.2c-.5-.3-1-.4-1.6-.2-.6.1-1 .5-1.3 1-.3.4-.3 1-.2 1.5 0 .7.3 1.3.7 1.8l.6.7c.3.4.7.6 1.1.7a2.3 2.3 0 0 0 2.5-.7c.2-.2.3-.6.4-.9V254.8c0-.3 0-.7-.3-1ZM71.7 479.3c-7-2.3-14.2-4-21.5-5 .4-8.3-1-16.7-4.2-24.5a4 4 0 0 0-6.9-1c-5.2 6-9.3 12.8-12.3 20.2-8.2-.7-16.4-.3-24.5 1.1a4 4 0 0 0-2.7 6.5A40 40 0 0 0 15 491.4 58 58 0 0 0 5 514a4 4 0 0 0 4.4 4.6c8-1 15.5-4.4 21.6-9.7 3.9 6.9 10 12.3 17.1 15.5a4.2 4.2 0 0 0 4-.5 4.4 4.4 0 0 0 1.5-3.7c0-7.3-1.2-14.5-3.6-21.3A52 52 0 0 0 73 485.5a4 4 0 0 0-1.4-6.2Z" fill="#fff"/>
    <path d="M52.5 483.2h-.9c-1.4 0-2.8.5-4 .8-3.2.4-6.4 1-9.6 1.9l1.7-15.8v-.7c.5-2.5-3.5-3.1-4-.6a41 41 0 0 0-2.3 17c-5.3-3.1-10.7-6.1-16.2-8.8-1.8-.8-3.2 1.1-2.7 2.6a2 2 0 0 0 1 1.3c5.3 2.7 10 6.1 14.2 10.2a37.9 37.9 0 0 0-8.7 8l-.9.8c-1.7 2 1.4 4.4 3.1 2.5 2.8-3 6-5.6 9.5-7.8a55 55 0 0 1 8.5 13.3v.2a2 2 0 0 0 3.7-1.5c-1.2-3.4-2.6-6.7-4-10a314 314 0 0 0-2.2-5.4c3-1.4 6.2-2.5 9.4-3.2l5.2-.7c2.3-.3 2-4.3-.8-4Z" fill="#F8983E"/>
    <path d="M10.2 195.4a108 108 0 0 1 20.7-7.5c-1.4-8.3-1-16.7 1.3-24.9a4 4 0 0 1 6.7-1.7 70.5 70.5 0 0 1 14.6 18.6c8-1.7 16.3-2.3 24.5-1.7a4 4 0 0 1 3.4 6c-2.9 6.7-7.6 12.4-13.6 16.6 5.7 6 10 13.3 12.7 21.2a4 4 0 0 1-4 5c-8 0-15.9-2.5-22.5-7-3.1 7.2-8.4 13.3-15.3 17.3a4 4 0 0 1-3.9 0 4.3 4.3 0 0 1-2-3.5c-.9-7.2-.5-14.5 1.1-21.6-9-1.3-17.4-4.9-24.5-10.5a4 4 0 0 1 .8-6.3Z" fill="#fff"/>
    <path d="M29.6 196.9h1c1.3 0 2.7 0 4.1.3 3.3 0 6.6.3 9.8.7l-3.4-15.4-.3-.7c-.8-2.4 3-3.5 4-1a41 41 0 0 1 4.3 16.6c4.9-3.8 9.9-7.4 15-10.6a2 2 0 1 1 2 3.6 54.6 54.6 0 0 0-12.7 11.8A37.7 37.7 0 0 1 63 209l1 .8c1.9 1.7-1 4.5-2.9 2.8a47 47 0 0 0-10.3-6.8c-3 4.4-5.3 9.2-6.9 14.2a2 2 0 0 1-3.9-1c.9-3.5 1.8-7 3-10.5l1.5-5.6c-3.2-1-6.4-1.7-9.7-2h-5.2c-2.6.2-2.6-3.8 0-4Z" fill="#F8983E"/>
    <path d="M1126.9 550.4c-8.8-4-17.9-7-27.3-9 1.5-10.9.7-21.9-2.5-32.3a5.2 5.2 0 0 0-3.8-3.5 5.3 5.3 0 0 0-5 1.4 92.1 92.1 0 0 0-18.2 24.7 118.4 118.4 0 0 0-31.9-1.4 5.4 5.4 0 0 0-4.3 2.8 5.3 5.3 0 0 0 0 5c4.1 8.6 10.4 15.9 18.2 21.1a75.2 75.2 0 0 0-15.7 28 5.3 5.3 0 0 0 5.2 6.4 52.5 52.5 0 0 0 29-10c4.3 9.3 11.5 17 20.4 22a5.3 5.3 0 0 0 5.3 0 5.4 5.4 0 0 0 2.4-4.6c1-9.4.2-18.9-2.2-28 11.6-2 22.4-7 31.5-14.4a5.2 5.2 0 0 0-1.1-8.2Z" fill="#fff"/>
    <path d="M1101.7 553.1c-.4-.2-.8-.2-1.2-.2-1.9 0-3.7.1-5.5.5-4.2.2-8.5.6-12.7 1.3l4-20.1.2-1c1-3.2-4-4.4-5-1.2v.2c-3.2 6.8-5 14.2-5.1 21.7-6.5-4.8-13-9.2-20-13.3-2.1-1.3-4.1 1-3.6 3a2.6 2.6 0 0 0 1.2 1.8 71 71 0 0 1 17 15 48.6 48.6 0 0 0-12.3 9l-1.3 1.1c-2.4 2.3 1.3 5.9 4 3.6 3.9-3.6 8.3-6.7 13-9.2 4 5.6 7.2 11.7 9.5 18.2v.2c.2.6.7 1.1 1.3 1.4a2.6 2.6 0 0 0 3.3-1c.4-.6.5-1.2.3-1.9-1.1-4.5-2.6-9-3.9-13.4l-2.2-7.2c4-1.5 8.2-2.5 12.5-3 2.2 0 4.5-.4 6.7-.4 3.4.2 3-5-.3-5Z" fill="#F8983E"/>
    <path d="M22.7 404.5c1.3-2.2 2.7-4.3 4.2-6.4-1-1.5-1.8-3-2.7-4.6a6.5 6.5 0 0 1 .5-7.6c2.2-2.2 5.4-1.4 8.1-1l3.7 1 1.8-2.1a4 4 0 0 1 6.8 2.8v2.1c2.3 1 4.6 2.2 6.9 3.5a4 4 0 0 1 1.8 3.9 4.1 4.1 0 0 1-2.8 3.3l-6.2 2.5-.2 8.3a4 4 0 0 1-4 4l-1-.3a4 4 0 0 1-4.5-1.6l-2.7-4.6-4.3 2.2a4 4 0 0 1-5.4-5.4Z" fill="#fff"/>
    <path d="M473.9 454.3c-19.3 29.6-34 61.2-38.2 96.4-2.2 18-2 36.2-2.7 54.3l.8 5.6 1.6 10.3.6 4.6c1.4 4.5 3.1 9 5.2 13.3a121.9 121.9 0 0 0 51.5 50.8c16.5 8.1 34.5 13 52.8 14.6 15.1 1.5 30.4.2 45.7 0l6.2-.9 4-1 10.4-1.7h3l5.8-.8c4-.8 7.8-2 11.5-3.4 12-5.9 24-12 35.8-18.1l.7-.4v-1.5l-7.8-11.3-40.1 16.3-2-24.5-3.9-47.8-11-14.3c1.7 19.1 3.7 38.2 5.2 57.4 0 2 .3 3.7.4 5.4l.5 6.2v2a28 28 0 0 1-1.2 12.3l-.3.7a8.7 8.7 0 0 1-2.6 2.7l-.9.6-1.3.6a72.6 72.6 0 0 1-17.1 2.8c-12.3 1.2-24.7.7-35.4 1a51815.7 51815.7 0 0 1 47-97.8l-.2-.4-6.5-8.2c-3 6-6 12.2-9.2 18.2l-35 70-6 11.8c-.6 1-2.3 2.7-3 2.5l-4.8-1.2-4.7-1.4c-2.6-.7-5.2-1.5-7.6-2.5l-2.8-1c-4.2-1.7-8.2-3.6-12.2-5.8l-2.7-1.5a85.3 85.3 0 0 1-11.8-8.3c-1-.7-1.8-1.5-2.6-2.3a84.6 84.6 0 0 1-13.8-16 2.6 2.6 0 0 1 0-2.5l102.2-75.8c-1.2-1.6-2.4-3.3-3.7-4.8l-104 73.7c-8-20-11.2-41.7-9.3-63.1a4.9 4.9 0 0 1 2.5-3.6 15345 15345 0 0 1 90.8-30.7l-4.9-5-86.9 26.8-.2.3v-.4c3.9-16.7 7.8-33.6 12.2-50.3a4.5 4.5 0 0 1 3.9-2.4c19.7 3.9 39.3 8.5 59 12.7L525 505l-47-10c3.6-9 7.3-18.1 10.8-27.3L475.2 454l-1.3.3Z" fill="#F8983E"/>
    <path d="m578 564.4-102.3 75.8c-.4.3-.5 1.9 0 2.4 15 22.5 37.1 34.1 63 40 .8.2 2.4-1.3 3-2.4l50.2-100-13.9-15.8ZM554.2 535.8l-90.7 30.8a4.8 4.8 0 0 0-2.5 3.5c-2 21.5 1.2 43.2 9.3 63.2l104-73.7-20.1-23.8ZM598.4 588.6l-47.2 97.8c10.6-.2 23 .3 35.4-.9 24.9-2.4 24.9-2.8 22.4-33.3-1.5-19.1-3.5-38.3-5.2-57.4l-5.4-6.2ZM462.5 557.6l86.8-27-11.2-12.3-.8-.5c-19.6-4.3-39.3-8.7-59-12.8a4.7 4.7 0 0 0-3.9 2.4c-4.2 16.8-8.2 33.6-12.2 50.4l.3-.2ZM615 609.1c1.3 15.8 2.5 31.5 4 47.8l1.9 24.5 39.6-16.1-4.8-6c-9.6-12.2-19.3-24.3-29.1-36.4-3.8-4.7-7.7-9.2-11.6-13.8ZM489.1 467.8 478.3 495l47 10-25.5-27.3c-3.4-3.5-7.1-6.6-10.7-10Z" fill="#FFE5BC"/>
    <path d="M453.6 537.6a5.5 5.5 0 1 1 0-11 5.5 5.5 0 1 1 0 11ZM449.6 570a5.5 5.5 0 0 1-5.5-7.8 5.5 5.5 0 0 1 5.5-3.2 5.5 5.5 0 1 1 0 11ZM443.7 545.4a3.5 3.5 0 0 1-3.3-3.5 3.6 3.6 0 0 1 3.4-3.3 3.3 3.3 0 0 1 3.4 3.4 3.3 3.3 0 0 1-3.5 3.4ZM472.4 595.7a5 5 0 0 0 2.4 1.7c3 2.7 8.5 3 12 3.7a46 46 0 0 0 25-2.3c4.6-1.6 8.6-4.5 11.7-8.2a33 33 0 0 0 4.3-5.7c.9-1.5 1.4-3.1 1.6-4.8a2.7 2.7 0 0 0 1.5-4.9c-2.7-3.5-6-6.5-9.8-8.8a27.5 27.5 0 0 0-21.2-4c-7 1.2-13.6 4.6-18.8 9.6-3.5 3.6-6.2 8-7.8 12.8-.7 3.6-3.4 7.6-.9 11Z" fill="#fff"/>
    <path d="m502.7 600.4 1 .8c2.8-.5 5.6-1.3 8.3-2.4 4.5-1.6 8.5-4.4 11.6-8.1a33 33 0 0 0 4.3-5.7c-1.4-12-11.8-23.2-24.7-16.1-11 6.7-9.2 23.6-.5 31.5Z" fill="#314E3B"/>
    <path d="M880.2 459.3c-2.2-6.8-5.7-13.5-8.5-20-1.3-3.4-2.9-6.7-4.6-10-.9-1.6-2-4.5-3.6-5.4-3.3-2-6.5 3.9-7.8 6l-2.7 4.3c-.9 1.5-3 6.9-5 5.5-1-1-2-2-2.8-3.2l-3.3-3.5a29.3 29.3 0 0 0-6.1-6.3c-2.8-1.5-5.8.6-7.9 2.4-3 3-5.4 6.7-7 10.7-.6 1-2.7 4.9-1.9 6 .8 1.1 2.4 0 3-.5 2.8-2.2 4.7-5.3 7.2-7.9a6 6 0 0 1 4.4-2.4c2.7 0 4 3 5 5 1.9 3 4 6 5.7 9 .7 1 1.3 2.6 2.7 2.8 4.7.6 7.9-8.4 9.7-11.4a9.6 9.6 0 0 1 3-4c2.5-1.3 3.9 2.7 5.1 4.4 3.7 5.4 6.4 11.3 10.1 16.6.4.6 4.6 8 6 6.8 1.4-1-.6-4.4-.7-5ZM600.4 473.8c-2.2-6.8-5.7-13.4-8.5-20a109 109 0 0 0-4.6-10c-1-1.6-2-4.4-3.6-5.4-3.3-2-6.5 3.9-7.9 6l-2.6 4.3c-.9 1.5-3 6.9-5 5.6-1-1-2-2.1-2.9-3.3l-3.2-3.5a29.3 29.3 0 0 0-6.2-6.3c-2.8-1.5-5.7.6-7.8 2.4-3 3-5.4 6.7-7 10.7-.6 1.1-2.7 4.9-2 6 1 1.2 2.5 0 3.2-.5 2.6-2.2 4.6-5.3 7-7.9a6 6 0 0 1 4.5-2.4c2.7 0 4 3 5 5 1.9 3 4 6 5.7 9 .6 1 1.3 2.6 2.7 2.8 4.7.6 7.9-8.4 9.7-11.4a9.6 9.6 0 0 1 3-3.9c2.5-1.4 3.8 2.6 5.1 4.3 3.7 5.4 6.3 11.3 10 16.7.5.5 4.6 7.8 6 6.7 1.5-1-.5-4.4-.6-4.9Z" fill="#5AAD6A"/>
    <path d="m960 435.7 1.5-3.1.5-.7v-.3l.2-.8 1.1-2.5c1.3-2 3.1-3.8 5.3-5h.2a11 11 0 0 1 8.4-3.6c1.7 0 3.4.5 5 1.4 1.4 1 2.7 2.3 3.5 3.8v.3l.5 1.2a11.8 11.8 0 0 1-.8 10.4 23.9 23.9 0 0 1-4.8 5.9 14 14 0 0 1-3 2h-.4l-.4.6a11.4 11.4 0 0 1-7.8 4 9.6 9.6 0 0 1-9-13.6ZM929 461v-.4l.8-1.9.8-1a8 8 0 0 1 2.5-2.3c.7-.4 1.5-.8 2.2-1h.5a11 11 0 0 1 5 0l1.2.5 1 .5c.8.4 1.5.9 2 1.5.4.4.8.8 1 1.2.7.5 1.3 1.2 1.7 2l.8 1.8c.4 1.4.4 2.8 0 4.2a10.7 10.7 0 0 1-4.5 6l-.6.3-2.4 1-2.2.2h-.4a9.8 9.8 0 0 1-6.9-2.8v-.2a26 26 0 0 1-1.2-1.7c-.4-.7-.8-1.5-1-2.3v-.5c-.2-.8-.3-1.7-.3-2.6-.2-1.1 0-2 0-2.6ZM1008.3 419.6c10 0 10 15.7 0 15.7-10.2 0-10.2-15.7 0-15.7Z" fill="#fff"/>
    <path d="M298.5 578.2c.1-8.2-1-16.5-3.6-24.3a7.8 7.8 0 0 0-13-3l-.7.5h-2.4c-3.2-.2-6.4 0-9.5.5a21.2 21.2 0 0 0-14.1 10.7c-1.8 3.7-2.4 8-1.8 12l-1.4-1.4-1-1-.3-.5a7.8 7.8 0 1 0-13.2 8.2 71.7 71.7 0 0 0 44.2 26.8 11.6 11.6 0 0 0 12.5-6.6c2.8-7 4.2-14.4 4.3-21.9ZM337.7 494a16.2 16.2 0 0 0-7.1-8.5c-2.4-1.5-5-2.7-7.7-3.7a55.6 55.6 0 0 0-10-3.4c-4-1-8.1-.5-11.7 1.5-3 2.3-5.6 5.3-7.5 8.7a30 30 0 0 0-5.3 9.3 11.6 11.6 0 0 0 5 12.7c1.6 1 3.3 1.7 5.2 2a7.6 7.6 0 0 0 .4 13.3c1.8 1 4 1.2 5.9.6a69.6 69.6 0 0 0 29.2-19.7 14.1 14.1 0 0 0 3.6-12.8ZM215.7 569a8.2 8.2 0 0 0-4-6.5c-3.9-2.6-8.4-4-13-4.2a17 17 0 0 0 .6-13.8c-.6-1.9-2-3.5-3.7-4.5a8 8 0 0 0-6-.6c-2.2.9-4 2.5-5 4.6a7 7 0 0 0-3.2-3.7 7.9 7.9 0 0 0-10.6 3.1 58.9 58.9 0 0 0-7 37.4 8 8 0 0 0 8 7.5 77.7 77.7 0 0 0 40.3-12 7.8 7.8 0 0 0 3.6-7.3Z" fill="#314E3B"/>
    <path d="M343.4 566.3c-6.7 3-14.1 4.5-21.6 4.2-20.1 1-40.1-3.7-57.8-13.5-2.5 32.2-17 62.4-40.4 84.7a8 8 0 0 1-12.3-1.3c-13.4-28.2-22-60.7-15.8-91a116 116 0 0 1-70.6 21.3 8 8 0 0 1-7-11.6 178.4 178.4 0 0 1 62-72c19-16.6 40.8-29.6 64.4-38.6l2-.7c28.2-10.3 62.6-17.4 91.7-6.5a7.9 7.9 0 0 1 5.1 11.4 113 113 0 0 1-47 45.5 107.6 107.6 0 0 1 47.8 47.3c3 6.5 7.5 15.5-.5 20.8Z" fill="#fff"/>
    <path d="M299.7 534a8 8 0 0 1-11 0c-16.1-11.8-34-21-53-27.2h-.4c4.4 22.8 4.4 46.2 0 69-2 9.8-17.2 6.2-15.2-3.6 3.6-18.5 3.8-37.4.8-56-5 .3-10.2-.1-15.2-1.3a184 184 0 0 1-34.1 21.2 8 8 0 0 1-10.7-2.5 7.7 7.7 0 0 1 2.5-10.7c8-3.8 15.9-8.2 23.3-13.1.6 0 1-.8 1.6-1.1a61.7 61.7 0 0 1-17.5-15.4l8.8-6.5c19-16.5 41-29.6 64.5-38.5l2-.7a75.2 75.2 0 0 1 6.5 19.5c10-6 21.4-9.8 33-11a7.8 7.8 0 0 1 .7 15.6l-3.7.6H281a89.6 89.6 0 0 0-12.5 4h-.5a1 1 0 0 0-.5 0 3 3 0 0 0-1 .4L264 478a65 65 0 0 0-5.7 3.5l-2.7 2c-1 .6-.5 0-.6.5l-.8.6c-.4 0-.6.7-1 1-.7 3-1.9 5.9-3.3 8.6 17.9 7 34.7 16.3 50.2 27.7a7.8 7.8 0 0 1-.3 12Z" fill="#F8983E"/>
    <path d="M243.3 453c-4.8-17-14.4-38.1-34-41.5-17.2-3-31.3 5.7-43.1 16.9-4.3 3-8 6.7-11.3 10.9a7.5 7.5 0 0 0-3 8.3 83.5 83.5 0 0 0 27.1 42.8c13.7 11.3 33.9 21.6 51.6 13.8 20.6-9 18-33.1 12.7-51.2Z" fill="#fff"/>
    <path d="M198.4 414.8c-2.8.3-5.5 1-8 2.4-2.8 1.2-5.5 2.4-8.2 3.8a46.7 46.7 0 0 0-20.6 19.8l-.3.6v.8c-.9 1.9-1.6 3.9-2 6a8 8 0 0 0 5.8 9.3 8.3 8.3 0 0 0 7.6-2.5l3.3-1a237.2 237.2 0 0 0 22.3-11c5-2.7 9-7.2 11-12.6a11.5 11.5 0 0 0-11-15.6Z" fill="#5AAD6A"/>
    <path d="M207 404.9c0-1-.2-2.1-.5-3.1a6.3 6.3 0 0 0-8.4-3.2 8 8 0 0 0-3.3 3.5 44.7 44.7 0 0 0-5.1 22.8 7 7 0 0 0 4.2 5.4 7 7 0 0 0 9.3-4.3l1.6-4.9 1.5-4.4c.6-2 1-4.2 1.2-6.4 0-1.8 0-3.6-.5-5.4ZM184.4 428.5v-1.9c0-6.5-1.7-12.8-4.9-18.5a7 7 0 0 0-8.2-3.5 7.5 7.5 0 0 0-5.2 5 7 7 0 0 0-1.1 3.9 41 41 0 0 0 4 18c.7 1.7 1.9 3 3.4 4a8 8 0 0 0 11-3 10 10 0 0 0 1-4ZM173.1 445.3a7.5 7.5 0 0 0-4.9-6.2h-2c-3.1-.6-6.4-1-9.6-.9-1.8 0-3.7 0-5.6.4-1.9.1-3.7.6-5.5 1.4a8.4 8.4 0 0 0-4.1 9.7c.3 1.2 1 2.3 1.8 3.3 1.7 1.6 3.8 2.6 6.2 3a33.8 33.8 0 0 0 10.5.2 29 29 0 0 0 9.4-3.2 7 7 0 0 0 3.8-7.7Z" fill="#F8983E"/>
    <path d="M1324.8 629.4c-1-3-3.2-5.5-6-7.1a38 38 0 0 0-6.4-3.2 46.8 46.8 0 0 0-8.4-2.7 13 13 0 0 0-9.7 1.2c-2.6 2-4.8 4.4-6.3 7.3-2 2.3-3.5 5-4.5 7.8a9.7 9.7 0 0 0 4.2 10.6c1.3.9 2.8 1.5 4.4 1.6a6.4 6.4 0 0 0-3 7.4 6.6 6.6 0 0 0 8.3 4.3 58.3 58.3 0 0 0 24.4-16.5 11.8 11.8 0 0 0 3-10.7Z" fill="#314E3B"/>
    <path d="M1329.6 690a40 40 0 0 1-18 3.5A91 91 0 0 1 1263 682c-2 27-14.2 52.3-33.9 71a6.7 6.7 0 0 1-5.4 2 6.6 6.6 0 0 1-4.8-3c-11.2-23.7-18.5-51-13.2-76.2a97.2 97.2 0 0 1-59.2 17.7 6.7 6.7 0 0 1-5.9-9.7 149.4 149.4 0 0 1 44.5-55l7.4-5.3c16-13.9 34.3-24.8 54-32.3l1.6-.6c23.7-8.6 52.5-14.6 76.9-5.4a6.6 6.6 0 0 1 4.2 9.5 94.6 94.6 0 0 1-39.3 38.1 90.1 90.1 0 0 1 40 39.6c2.5 5.5 6.3 13-.4 17.4Z" fill="#fff"/>
    <path d="M1293 662.9a6.7 6.7 0 0 1-9.3 0 157.6 157.6 0 0 0-44.3-22.8h-.4c3.7 19.1 3.7 38.7 0 57.8-1.7 8.2-14.3 5.2-12.7-3 3-15.5 3.3-31.3.8-46.9-4.3.2-8.6-.1-12.8-1a154 154 0 0 1-28.6 17.7 6.7 6.7 0 0 1-9-2.2 6.4 6.4 0 0 1 .3-7.2c.5-.7 1.1-1.2 1.9-1.7 6.7-3.2 13.2-6.8 19.5-11 .4 0 .8-.6 1.3-1a51.6 51.6 0 0 1-14.6-12.8c2.4-1.8 4.8-3.7 7.4-5.4 16-13.9 34.2-24.8 54-32.3l1.5-.6a63.2 63.2 0 0 1 5.6 16.4 65 65 0 0 1 27.7-9.2 6.6 6.6 0 0 1 .5 13l-3.1.5h-1.3a73.6 73.6 0 0 0-10.4 3.3h-.9l-.8.4-2.3 1.2c-1.6.9-3.2 1.9-4.7 3-.9.5-1.6 1-2.3 1.6-.8.5-.4 0-.5.4l-.7.5c-.3 0-.5.6-.8.8-.6 2.5-1.6 5-2.8 7.2 15 5.8 29.1 13.7 42 23.2a6.5 6.5 0 0 1-.2 10.1Z" fill="#F8983E"/>
    <path d="M1245.8 595c-4-14.2-12.1-31.9-28.5-34.7-14.4-2.5-26.2 4.7-36.1 14.1a49.3 49.3 0 0 0-9.5 9.1 6.2 6.2 0 0 0-2.5 7 69.9 69.9 0 0 0 22.7 36c11.5 9.4 28.4 18 43.3 11.4 17.2-7.6 15-27.7 10.6-42.8Z" fill="#fff"/>
    <path d="M1208.1 563c-2.3.3-4.6 1-6.6 2-2.4 1.1-4.7 2.1-7 3.3a39.1 39.1 0 0 0-17.1 16.5l-.3.5v.7a24 24 0 0 0-1.7 5 6.6 6.6 0 0 0 4.9 7.9 7 7 0 0 0 6.4-2.2l2.7-.9a193.1 193.1 0 0 0 18.7-9.1c4.2-2.3 7.5-6 9.3-10.5a9.6 9.6 0 0 0-9.3-13.1Z" fill="#5AAD6A"/>
    <path d="M1215.4 554.8c0-1-.2-1.8-.5-2.6a5.4 5.4 0 0 0-3-2.9 5.3 5.3 0 0 0-4 .2 6.7 6.7 0 0 0-2.8 3 37.5 37.5 0 0 0-4.3 19 6 6 0 0 0 3.6 4.5 6 6 0 0 0 7.8-3.6l1.4-4a72 72 0 0 0 1.2-3.7c.5-1.8.8-3.6 1-5.4 0-1.5 0-3-.4-4.5ZM1196.5 574.5V573c0-5.5-1.5-10.8-4.2-15.5a6 6 0 0 0-6.8-3 6.3 6.3 0 0 0-4.4 4.3c-.6 1-1 2-1 3.2 0 5.2 1.2 10.4 3.5 15.1a7.3 7.3 0 0 0 2.8 3.3 6.7 6.7 0 0 0 9.1-2.5c.6-1 .9-2.2 1-3.4ZM1187 588.6a6.3 6.3 0 0 0-4.1-5.2h-1.7c-2.6-.5-5.3-.7-8-.7-1.6 0-3.2 0-4.7.3-1.6.1-3.1.5-4.6 1.1a7 7 0 0 0-3.7 5 6.9 6.9 0 0 0 1.8 6 8.8 8.8 0 0 0 5 2.4 28.3 28.3 0 0 0 9 .2c2.7-.4 5.4-1.3 7.8-2.6a5.9 5.9 0 0 0 3.2-6.5Z" fill="#F8983E"/>
    <path d="M357.6 596.4a140 140 0 0 1 26.9-9 75.1 75.1 0 0 1 2.5-31.8 5.2 5.2 0 0 1 8.6-2 91 91 0 0 1 18 24.3 117 117 0 0 1 31.5-1.3 5.2 5.2 0 0 1 4.3 7.7 52 52 0 0 1-18 20.8c7 8 12.4 17.4 15.5 27.6a5.2 5.2 0 0 1-5.1 6.3 51.8 51.8 0 0 1-28.7-9.8 47 47 0 0 1-20.1 21.7 5.2 5.2 0 0 1-5.2 0 5.4 5.4 0 0 1-2.4-4.5c-1-9.3-.2-18.6 2.2-27.7a66.6 66.6 0 0 1-31.1-14.2 5.2 5.2 0 0 1 1-8.1Z" fill="#fff"/>
    <path d="M382.5 599c.4 0 .8-.2 1.2-.1 1.8 0 3.6.1 5.3.4 4.2.2 8.4.7 12.6 1.3l-4-19.8-.2-1c-1-3.1 4-4.3 5-1.2v.2c3.2 6.7 4.9 14 5 21.4 6.4-4.6 13-9 19.7-13 2.2-1.4 4.1 1 3.7 2.9a2.6 2.6 0 0 1-1.2 1.8c-6.4 4-12 9-16.8 14.7a48 48 0 0 1 12.1 9l1.3 1c2.4 2.3-1.3 5.9-3.9 3.6a60 60 0 0 0-13-9.1 71 71 0 0 0-9.3 18v.2a2.6 2.6 0 0 1-4.8-1.5c1.1-4.4 2.5-8.9 3.8-13.2l2.2-7.2c-4-1.4-8.1-2.4-12.3-3-2.3 0-4.5-.3-6.7-.3-3.3.2-3-5 .3-5Z" fill="#F8983E"/>
    <path d="M823.6 575.6a83.9 83.9 0 0 1 16-5.3 45 45 0 0 1 1.6-19.2 3.1 3.1 0 0 1 5.2-1.2c4.4 4.3 8 9.2 10.8 14.6a70.1 70.1 0 0 1 18.9-.8 3.1 3.1 0 0 1 2.5 4.7c-2.4 5-6.1 9.3-10.8 12.5a44.5 44.5 0 0 1 9.3 16.5 3.1 3.1 0 0 1-3 3.8 31 31 0 0 1-17.3-6 28.2 28.2 0 0 1-12 13.1 3.1 3.1 0 0 1-3.1 0 3.2 3.2 0 0 1-1.5-2.7c-.5-5.6 0-11.2 1.3-16.6a40 40 0 0 1-18.6-8.5 3.1 3.1 0 0 1 .7-4.9Z" fill="#fff"/>
    <path d="m838.5 577.2.7-.1a67.3 67.3 0 0 1 10.7 1l-2.3-11.9-.1-.5c-.6-1.9 2.3-2.6 3-.7 1.8 4.1 2.9 8.5 3 13 3.8-2.9 7.7-5.5 11.8-8 1.3-.7 2.4.7 2.1 1.8a1.6 1.6 0 0 1-.7 1.1 42 42 0 0 0-10 8.8 28.8 28.8 0 0 1 7.3 5.5l.7.6c1.4 1.3-.8 3.5-2.3 2.1a36 36 0 0 0-7.8-5.5c-2.4 3.4-4.2 7-5.6 10.9a1.5 1.5 0 0 1-3-.8l2.4-8 1.3-4.2c-2.4-1-4.8-1.5-7.4-1.9l-4-.1c-2 0-1.8-3 .2-3Z" fill="#F8983E"/>
    <path d="M452.6 452c-4.2-4.8-9-9-14.1-12.6 2.4-3 4.6-6.1 6.3-9.6a7 7 0 0 0-4.2-10.3 19 19 0 0 0-10.9 0l-4.1 1h-.8v-.5l-1-3.8c-.6-3-1.7-6-3.4-8.7a7 7 0 0 0-12.9 1.6c-1 4-1.2 8.2-.5 12.3 0 1.6.4 3.1.4 4.7 0 1-.2 2-.4 3 0 .6 0 .6-1 1l-1 .6-2 .7a29 29 0 0 0-10 5 7 7 0 0 0 0 9.9c2.2 2.1 4.9 3.7 7.8 4.4 2.4.7 5 .9 7 1.7-.3 0 0 0 0 0s.6.7.4 0c.3.6.5 1.3.6 2a23 23 0 0 1-1.8 8.3 7 7 0 1 0 13.5 3.7c.7-1.7 1.1-3.5 1.5-5.3h1l24 1.8a7 7 0 0 0 6.6-4.3 7 7 0 0 0-1-6.7ZM822 538.4c.5-3 .6-6.2.3-9.3 2 0 3.8-.2 5.6-.6a3.5 3.5 0 0 0 2.7-4.8 9.4 9.4 0 0 0-3.4-4.2l-1.7-1.2-.3-.3.2-.1 1.1-1.6c1-1.2 1.8-2.6 2.3-4a3.5 3.5 0 0 0-4.7-4.4 15 15 0 0 0-4.8 3.7l-1.7 1.5c-.3.4-.8.6-1.2.8-.3.2-.3.2-.7 0l-.5-.2-1-.6c-1.5-1-3.2-1.8-5-2.2a3.5 3.5 0 0 0-3.7 3.1c-.2 1.5.1 3 .7 4.4.5 1.1 1.3 2.1 1.6 3.2-.1-.1 0 0 0 0s0 .4.1.1a3 3 0 0 1-.5.8c-1.2.9-2.4 1.5-3.8 2a3.5 3.5 0 1 0 2.9 6.3l2.4-1.1.3.3 7 9.7a3.5 3.5 0 0 0 3.6 1.1 3.5 3.5 0 0 0 2.2-2.4ZM603 479.7a5.2 5.2 0 0 0-5.4-1.9c-4.4.7-8.8 1.6-13.1 2.7-.9-2.6-2.2-5-3.8-7.3a7.8 7.8 0 0 0-8.8-2.8c-1 .4-2 1-2.8 1.7a20 20 0 0 0-3.2 12.3v2.6c-4.2 1.8-8.3 3.8-12.3 6a5.2 5.2 0 0 0-2 7.1c.5.8 1.2 1.5 2 2l10.3 4.5-1.7 20.2a5.2 5.2 0 0 0 5.2 5.2 4.7 4.7 0 0 0 3.6-1.7c1-.4 1.8-1 2.4-2 1.7-2.7 3.6-5.2 5.2-8a15.5 15.5 0 0 0 14.1 3.5 9.6 9.6 0 0 0 6-11c-1-4.1-2.6-8.2-4.7-12l-.6-1.7 9.8-13.6a5.2 5.2 0 0 0-.2-5.8Z" fill="#fff"/>
    <path d="M420.4 491.5c-7.6-5.6-16.6-10-24.8-14.9-4.2-2.4-8.4-5-12.8-7a18.7 18.7 0 0 0-8.1-3c-5 .4-4.1 9-3.7 12.4 0 2.4.4 4.6.5 7.1.2 2.5 2.3 9.7-1 10-2-.3-3.8-.7-5.6-1.4-2-.4-4.2-.7-6.2-1.2a38.1 38.1 0 0 0-11.5-1.9c-4.3.6-5.8 5.2-6.8 8.8a43 43 0 0 0 1 17c0 1.6.9 7 2.6 7.9 1.8 1 2.6-1.8 3-3 1.1-4.4.7-9.3 1.5-14.1a7.8 7.8 0 0 1 2.9-6c2.9-2 6.3 0 9.2 1.3l13.2 5.2c1.5.6 3.5 1.8 5.1 1 5.5-3.1 2-15.3 1.6-20-.6-2-.6-4.3 0-6.4 1.7-3.5 6.4-.4 9 .5 8.1 3 15.7 7.1 23.8 10 1 .4 11.2 5 11.8 2.7.6-2.4-4.2-4.5-4.7-5ZM798.9 422.5l-.1-1a3 3 0 0 0-.2-.4 3.4 3.4 0 0 0-3.9-1.7l-3.8 1.3a31.9 31.9 0 0 0-19.9 18.1c-1.1 2-2 4.2-2.7 6.4a3.2 3.2 0 0 0 2.4 3.9h1a3.4 3.4 0 0 0 3.7 0c5.8-2.8 11.6-5.8 16.2-10.5 4-3.9 6.5-9 7.2-14.5l.2-.6-.1-1Z" fill="#5AAD6A"/>
    <path d="M793 473.6a29 29 0 0 1-34.4 17.2l-1.2-.1c-2.5-.7-5-1.7-7.2-3a17.7 17.7 0 0 1-12-13.4c-.5-1.1-.9-2.3-1.2-3.4a25.6 25.6 0 0 1 12.8-30.8 26.8 26.8 0 0 1 17-2.4l1.5.2c1-.3 2-.5 3.1-.6a5.1 5.1 0 0 1 5.2 3.5h.2c3.2.8 6.1 2.3 8.7 4.4 2.3 2 4.1 4.6 5.2 7.5a22.6 22.6 0 0 1 2.3 20.9Z" fill="#F8983E"/>
    <path d="m786.9 465.5-.1-.7-.2-.7a8 8 0 0 0-.5-1l-.2-.3a2 2 0 0 0-.5-.8c-.5-.4-1.2-.6-2-.6l-.6.1c-.4.2-.7.4-1 .8a5.7 5.7 0 0 0-1.6 3.9c0 .3 0 .6.2 1l.2.3.1.3.5.6.3.2.4.3.6.2.8.1h.6c.3 0 .5 0 .7-.2h.1l.4-.3.5-.4.3-.3.3-.4c.3-.3.4-.7.5-1l.2-1ZM777.3 465c0-.2 0-.5-.2-.7v-.1c0-.3-.2-.5-.3-.7a7 7 0 0 0-.5-.5v-.1l-.7-.5h-.1l-.7-.2H773.8a6 6 0 0 0-.8.1l-.3.2-.3.1h-.1l-.6.5-.5.7v.1a6 6 0 0 0-.2.8 6.6 6.6 0 0 0 0 1l.1.7v.2l.3.6.5.5v.1l.7.4.8.3h1.1l.8-.2h.1l.7-.3.6-.5.2-.4.3-.4v-.7c.2-.3.2-.6 0-1ZM779 478v-1l-.2-.6v-.1l-.3-.7-.8-.7-.3-.2-.7-.3h-.1a4.3 4.3 0 0 0-1.6.2 3 3 0 0 0-1.4.8l-.4.6-.3 1.5c0 .3 0 .6.2.8v.2a3.6 3.6 0 0 0 .9 1.3c.4.4 1 .6 1.5.7h1.5c.2-.1.5-.2.6-.4l.6-.4.4-.7.3-.6v-.5ZM783.7 455.5c.1-.7 0-1.4-.1-2l-.3-.9a7 7 0 0 0-.6-1.1l-.2-.3-.1-.2v-.1a3.4 3.4 0 0 0-2-1.4 3.2 3.2 0 0 0-2.5.4c-.6.5-1.1 1.1-1.4 1.8-.4 1-.5 2-.3 3 0 .6.1 1 .3 1.5.2.6.5 1.2 1 1.7a3.5 3.5 0 0 0 5.8-1.2c.2-.4.4-.8.4-1.2Z" fill="#fff"/>
    <path d="m717.3 462-.9.2c-.3.4-.7.6-1.1.8a3 3 0 0 1-1.6 0c-2.4-.6-4.8-1-7-1.7a33 33 0 0 1-7.7-3.3 19.5 19.5 0 0 1-8.4-9.8 2.3 2.3 0 0 1-.5-2.4 2.7 2.7 0 0 1 2.7-2l3.3.3a25.2 25.2 0 0 1 19 10c.4.7 1 1.2 1.4 1.8l.8 1 1 1.7a2.6 2.6 0 0 1-1 3.4Z" fill="#314E3B"/>
    <path d="M719.4 454.2a2.8 2.8 0 0 1-1 2c-.3.4-.7.6-1 .8l-1.5.2c-.4 0-.7-.1-1-.3-.6.2-1.2.2-1.8.1a4 4 0 0 1-1.9-1l-.7-.7a75.9 75.9 0 0 1-9.3-10.5c-1-1.4-1.9-2.8-2.7-4.3a25 25 0 0 1-2.5-16.4 3 3 0 0 1 1.1-3 3.4 3.4 0 0 1 4.4-.4 37 37 0 0 1 3.4 2.5 32.2 32.2 0 0 1 13.9 23.9c.4 2.3.6 4.7.6 7ZM721.7 457.7l1.9 2.9c.3 0 .5.2.7.4 1.2 1 2 2.5 2.5 4l1.7 3c1 1.4 1.7 2.8 2.2 4.3l.5.9c1.4 1.1 2.7 2.5 3.7 4v.2h.5l.5.1h.6a5.8 5.8 0 0 1 4 2.6c.3 0 .7.2 1 .4 1.7 1.6 3.3 3.3 4.6 5.1a2 2 0 0 1 1.7.2l1.2.8c.2 0 .4 0 .5.2.5.2 1 .6 1.3 1a26.9 26.9 0 0 0-.8-23.7 26.2 26.2 0 0 0-25.2-13c-1 1.6-2.2 3.2-3.4 4.8l-.8 1.1 1.1.7Z" fill="#314E3B"/>
    <path d="M749.9 493a17 17 0 0 1-5.5 9.7c-1.9 1.7-4.1 3-6.5 3.7a29.6 29.6 0 0 1-8.4 3.1 29 29 0 0 1-34.5-17.2 22.7 22.7 0 0 1 2.5-20.9 17.5 17.5 0 0 1 5.2-7.5 26.4 26.4 0 0 1 8.7-4.5h.1l.4-.8 1.3-1.5a4.4 4.4 0 0 1 3.3-1.1h.2c.6 0 1.2.2 1.7.3l1.3.3c6.3-1.4 12.8-.7 18.5 2.2 4.6 2.3 8.3 6 10.8 10.4a27 27 0 0 1 .9 23.8Z" fill="#F8983E"/>
    <path d="M765 433.4A26.8 26.8 0 0 0 739 443c-2.3 3-4 6.6-4.7 10.4-5.2-2-10.9-2.4-16.4-1.2l-1.3-.3a2.8 2.8 0 0 0 1-2c0-2.4-.3-4.8-.7-7.2a32 32 0 0 0-7.4-17.9 26 26 0 0 0-1.1 24.5 16.6 16.6 0 0 0 1.7 4.9 18 18 0 0 0 10.4 8.6 28.9 28.9 0 0 0 8.3 3 28.1 28.1 0 0 0 18.5-1 28.4 28.4 0 0 0 17.1-16.6c1.9-4.8 2-10 .4-15Z" fill="#314E3B"/>
    <path d="M701.2 484.2v-.7l.3-.7.5-1v-.3l.7-.8c.5-.4 1.1-.6 1.8-.6l.7.1c.4.2.8.4 1 .8l1 1.1a5.5 5.5 0 0 1 .6 2.8c0 .3 0 .6-.2 1l-.1.3-.2.3a7 7 0 0 1-.5.5l-.3.3-.4.2-.6.2-.8.2h-.6l-.6-.2-.2-.1-.4-.3a2 2 0 0 1-.5-.3l-.3-.3-.3-.4-.5-1.1-.1-1ZM710.7 483.8v-.2l.1-.6v-.2l.4-.6.5-.6.7-.5h.1l.7-.2H714.2l.8.1.3.2.3.1h.1l.6.6.4.6v.1l.3.8v.1a6.3 6.3 0 0 1 0 1c0 .2 0 .4-.2.7 0 .3-.2.5-.3.7l-.4.5h-.1l-.7.5-.7.2h-1.1a4 4 0 0 1-.8-.1h-.2l-.6-.3a6 6 0 0 1-.6-.6 3 3 0 0 1-.3-.3 2.4 2.4 0 0 1-.5-1.2c0-.3 0-.6.2-.8ZM709 496.6a4.3 4.3 0 0 1 .2-1.5v-.1l.3-.7a3.1 3.1 0 0 1 1.8-1.2h1l.7.2c.3 0 .6.2.8.3l.6.5v.1l.4.6.3 1.5c0 .3 0 .5-.2.8v.2l-.3.7-.6.6c-.4.3-.9.6-1.4.7h-1.5l-.7-.4-.6-.4-.4-.7a10.3 10.3 0 0 1-.4-1.2ZM704.3 474.2l.1-2 .3-.9c.1-.4.3-.8.6-1.1l.2-.3.1-.2v-.1c.5-.7 1.2-1.2 2-1.4a3.2 3.2 0 0 1 2.5.4c.7.4 1.1 1 1.4 1.8.4 1 .5 2 .3 3 0 .5-.1 1-.3 1.4-.2.7-.5 1.3-1 1.7a3.6 3.6 0 0 1-3.8.9c-.5-.2-1-.5-1.3-1l-.6-.8-.1-.2-.4-1.2Z" fill="#fff"/>
    <path d="m762.7 387.2-.5-.4a2.7 2.7 0 0 0-3.4-.3c-.9.5-1.7 1.2-2.6 1.9a24.8 24.8 0 0 0-10.8 18.6c-.3 1.8-.5 3.6-.5 5.5a2.6 2.6 0 0 0 3.5 2 2.7 2.7 0 0 0 2.8-.7c4-3.4 7.3-7.4 9.9-11.9 2-4 2.8-8.4 2-12.8a2.4 2.4 0 0 0-.4-1.9Z" fill="#314E3B"/>
    <path d="M781.1 416.9c1-1.5 1.8-3 2.5-4.6.9-2 1.3-4 2-6a18.3 18.3 0 0 0 1.2-4.6l.2-4.5c0-3 0-6-3.4-6.8-2.6-.4-5.3-.1-7.9.7-4.6 1.1-9 3-13 5.5a34.4 34.4 0 0 0-13.4 14.8c-.3.1-.6.4-.7.8-1.6 4.2-3.2 9.3-.3 13.4.6 1 2 2.6 3.2 2.7.5 0 1-.3 1.5 0l1.4 1 1.3.5c6.2 2.7 12.2.1 17.3-3.7 2.5-2 4.7-4.4 6.6-7l1.5-2.2Z" fill="#5AAD6A"/>
    <path d="M773.9 419.1c-4.3-.7-8.7-.3-12.8 1.2l4.4-4.8c4-2.5 8.8-3.5 13.6-3a.9.9 0 1 0 .2-1.8c-3.7-.3-7.4.2-10.9 1.5l4.4-4.8.9-1c2.5-1.3 5.5-2 8.5-1.8 1 0 1.3-1.6.2-1.7-2-.1-4 0-6 .6l3.4-3.6 1.7-1.8 1.2-1.5c.1-.2.2-.6 0-.9.6-.8-.6-1.7-1.3-1a.7.7 0 0 0-.6.7l-.3.3-6.2 6.2c.5-2 .8-4.1 1-6.2a.9.9 0 1 0-1.8-.2c-.1 3-.7 6.1-1.7 9l-6 6.7c.9-4.2 1.3-8.4 1.3-12.6 0-.5-.5-.8-1-.8a.9.9 0 0 0-.7 1c0 5-.6 10-1.9 15l-4.4 5.3c.5-4.8.3-9.7-.6-14.4-.3-1-2-.8-1.7.2 1.1 5.5 1.2 11.2.2 16.7l-.3.4a.8.8 0 0 0-.2.5.8.8 0 0 0 .9 1.1h.5a24.3 24.3 0 0 1 15.9-2.8c1 .2 1.2-1.5 0-1.7Z" fill="#314E3B"/>
    <path d="M761.2 424c-1.1-3-3-5.6-5.3-7.6a21.7 21.7 0 0 0-8.7-4.4h-.1a5.1 5.1 0 0 0-5.2-3.5l-3 .6a27.2 27.2 0 0 0-18.6 2.2 26 26 0 0 0-11.5 34.2 17.7 17.7 0 0 0 12 13.5 28.4 28.4 0 0 0 8.3 3.1 29 29 0 0 0 34.6-17.3 22.6 22.6 0 0 0-2.5-20.9Z" fill="#F8983E"/>
    <path d="m757.5 436.7-.1-.7-.2-.7a7 7 0 0 0-.5-1l-.1-.3-.6-.8a2.5 2.5 0 0 0-1.9-.6l-.6.1c-.5.2-.8.4-1.1.8l-.9 1.1-.5 1.4c-.2.4-.2 1-.2 1.4 0 .3 0 .6.2 1l.4.6c0 .2.2.4.4.5l.4.3.3.2.6.2.8.2h.7c.2 0 .4 0 .6-.2l.1-.1.5-.2.4-.4.4-.3.3-.4.5-1.1v-1ZM748 436.3v-.1l-.2-.7v-.1l-.3-.7a7 7 0 0 0-.6-.6l-.7-.5-.8-.2h-.9l-.9.1a2 2 0 0 0-.3.2l-.3.1h-.1l-.6.5-.4.7v.1l-.3.8c0 .2 0 0 0 0v1.1c0 .2 0 .5.2.7v.1c0 .2.1.5.3.7l.4.5.8.4.7.3h1.1l.8-.2h.1l.7-.3.6-.5.3-.4a2.4 2.4 0 0 0 .4-1.2v-.8ZM754.3 426.7a5.1 5.1 0 0 0-.4-2.9 6.8 6.8 0 0 0-1-1.6v-.1a3.4 3.4 0 0 0-2-1.4 3.1 3.1 0 0 0-2.4.4c-.6.5-1.1 1.1-1.4 1.8-.4 1-.5 2-.3 3l.3 1.5c.2.6.6 1.2 1 1.7a3.5 3.5 0 0 0 5.1-.1c.3-.2.5-.5.6-.8l.1-.3c.2-.4.4-.8.4-1.2Z" fill="#fff"/>
  </g>
  <defs>
    <clipPath id="clip0_2344_6816">
      <path fill="#fff" d="M0 0h1440v642H0z"/>
    </clipPath>
  </defs>
</svg>